<svg version="1" xmlns="http://www.w3.org/2000/svg" width="980" height="980" viewBox="0 0 735.000000 735.000000"><path d="M417.5 3.5c-3.8 1.3-13.3 4.4-21 6.8-38.4 12.3-66 21.2-85 27.3-11.5 3.8-21.3 6.9-21.7 7-.5.1-1 .3-1.3.4-.3.1-.8.3-1.2.4-.5.1-3.9 1.2-7.8 2.4-3.8 1.2-7.4 2.2-8 2.3-.5 0-1.8.5-2.8 1.1-1 .5-2.6 1.1-3.5 1.3-.9.2-5.1 1.5-9.2 3-4.1 1.4-7.5 2.5-7.5 2.5 0-.1-.7.1-1.5.4-5.6 1.9-28.8 9-30 9.2-.8.2-2.3.7-3.5 1.3-1.9.9-9 3.3-11 3.7-1.6.3-23.6 7.4-29.5 9.6-3 1.1-6.2 2.1-7 2.2-2.9.4-22.5 6.9-23.6 7.7-.6.5-1.3.6-1.6.3-.4-.3-2 .2-3.7 1.1-1.7.8-3.1 1.3-3.1.9s-.7-.1-1.5.6-1.5 1-1.5.6c0-.3-1.7 0-3.7.8-4.1 1.5-7 2.5-7.8 2.6-.3 0-2.4.8-4.7 1.6-2.4.9-5 1.7-5.8 1.9-1.3.3-8.3 2.6-34.5 11.1-4.4 1.4-8.4 2.7-9 2.8-.5.1-5.5 1.7-11 3.5s-10.4 3.4-11 3.5c-3.7.8-11.5 4.3-11.5 5.1 0 .6 1.8 11 4.1 23 2.3 12.1 4.5 24.5 5 27.5.6 3 1.2 6.5 1.4 7.7.9 4.5 1.4 6.8 1.9 10.3.3 1.9.8 4.6 1.1 6 .5 2.3 1 4.5 3.5 18.5.5 3 1.5 8.1 2.1 11.2.6 3.2 1.2 6.7 1.4 7.8.2 1.1.7 3.3 1 5 .3 1.6 1 5.4 1.5 8.4 1.1 6.2 1.5 6.7 12.2 20.9 4.3 5.7 7.8 10.5 7.8 10.7 0 .3.7 1.3 1.5 2.2C79.2 291 94 311.1 94 311.6c0 .2.8 1.3 1.8 2.3.9 1.1 3.5 4.5 5.7 7.6 2.2 3.1 5.1 7.1 6.5 8.9 1.4 1.8 3.3 4.4 4.3 5.7 8.9 12.3 11.2 15.5 11.7 15.9.3.3 2.1 2.7 4 5.5 1.9 2.7 4 5.7 4.7 6.5.6.8 3.2 4.2 5.6 7.5 2.4 3.3 18.1 24.7 34.8 47.5 16.8 22.8 37.4 50.9 45.9 62.5 8.4 11.5 15.9 21.5 16.6 22.1.8.6 1.4 1.5 1.4 1.9 0 .6 11.8 16.9 16.3 22.5.7.8 2.3 3.1 3.7 5 1.3 1.9 2.7 3.7 3 4 .4.3.9 1.3 1.3 2.3.9 2.3 3.2 1.8 13.2-2.8 10.8-5 14.9-6.9 15.5-7 .3 0 2.8-1.1 5.5-2.4 2.8-1.3 5.5-2.5 6-2.6 1.3-.4 18.1-8.1 21.8-10 1.6-.8 3.2-1.5 3.7-1.5.4 0 5.1-2 10.4-4.5 5.3-2.5 9.9-4.5 10.2-4.5.3 0 4-1.6 8.2-3.6 4.2-2 9.1-4.2 10.7-4.9 1.7-.7 5.3-2.3 8-3.5 2.8-1.3 10.6-4.7 17.5-7.7 19.9-8.7 23.4-10.3 25-11.2 1.5-.8 1.6-4 1-32.6-.3-11.6-.8-10.7 5.8-10 3.1.3 8.4.8 11.7 1.1 3.3.2 8 .7 10.5.9 2.5.3 7.4.7 11 1 7.6.6 15.7 1.3 22 2 2.5.3 7.2.7 10.5 1 3.3.2 8 .7 10.5 1 5.9.6 12.8 1.3 21.5 2.1 3.9.3 8.6.7 10.5.9 16.8 1.5 20.8 1.8 22.8 1.9 1.2 0 2.2.3 2.2.6 0 .6-4.3 5.1-29.5 31.5-20.6 21.6-23.5 24.6-42.4 44.4-8 8.4-17.7 18.5-21.5 22.5-10.2 10.6-34.9 36.5-39 40.9-2 2.1-3.6 3.2-3.7 2.5-.1-.7-.2-4.5-.3-8.3-.1-3.9-.5-7.6-.9-8.2-.4-.6-.3-1.4.2-1.7.4-.3.6-2 .4-3.8-.3-1.8-.5-5.2-.5-7.6-.1-2.3-.2-4.2-.4-4.2-.3 0-4.9 2.2-32.4 15.2-5.8 2.7-13.9 6.6-18 8.5-4.1 1.9-8.2 3.9-9 4.4-.8.5-2.4 1.3-3.5 1.8s-6.5 3-12 5.7c-5.5 2.6-10.2 4.8-10.5 4.9-.5.2-4.6 2.1-27.3 12.9-6.4 3-12 5.7-12.4 5.8-.4.2-5.7 2.8-11.8 5.8l-11.2 5.5-7.9-11.3c-4.3-6.2-8.4-11.9-9-12.5-.5-.7-1.3-2-1.7-3-.3-.9-1.1-1.7-1.7-1.7-.5 0-1-.4-1-.9 0-.8-16.6-25-21.3-31.2-.7-.8-1.6-2.2-2.2-3.1-1.2-1.8-9-12.9-17.2-24.5-3.2-4.5-7.1-10.1-8.8-12.5-14.6-20.9-20-28.3-20.7-28.6-.4-.2-.8-.8-.8-1.4 0-.9-6.4-10.3-8-11.8-.3-.3-.9-1.2-1.5-2.1-.5-1-2.4-3.7-4.1-6-3.8-5.4-12.1-17.4-14.8-21.4-1.2-1.7-2.4-3.2-2.8-3.3-.5-.2-.8-1-.8-1.8s-.3-1.4-.7-1.4c-.5 0-2.1-2.1-3.8-4.8-1.6-2.6-3.2-4.9-3.5-5.2-.4-.3-3.7-5-7.5-10.5-3.7-5.5-7.6-10.9-8.7-12.1-1-1.1-1.5-2.4-1.1-2.7.3-.4.2-.7-.4-.7-.5 0-3.6-3.9-6.8-8.8-3.3-4.8-6.2-8.9-6.5-9.2-.3-.3-5.3-7.3-11-15.5-5.7-8.3-10.6-15.2-10.9-15.5-.3-.3-1-1.3-1.6-2.2-.5-.9-3.7-5.6-6.9-10.3-5.8-8.4-8-11-7.1-8.3.2.7.7 3.1 1 5.3.3 2.2.8 5.1 1 6.5.3 1.4.7 3.8.9 5.5.2 1.6.6 3.7.9 4.5.5 1.6 2.9 14.9 3.3 19 .2 1.4.5 3.7.9 5.2.3 1.6.7 3.8.9 5 .3 1.3.7 3.4 1.1 4.8.3 1.4.7 4.3.9 6.5.3 2.2.7 4.7 1 5.5.4 1.3 1 4.4 2.1 11.5.2 1.1.5 3.1.8 4.5.3 1.4.8 4.1 1.1 6 .3 1.9.8 4.7 1.1 6.2.3 1.6.7 4 1 5.5.3 1.6.7 4.1 1 5.8.3 1.6.7 4.1 1 5.5.3 1.4.8 4.2 1 6.4.4 2.7 3.3 7.8 9.8 17.3 5 7.4 9.8 14.1 10.5 14.8.6.8 1.2 1.6 1.2 1.9 0 .5 14.7 21.7 16.7 24.1.5.5 2 2.8 3.3 5 1.3 2.2 2.6 4.2 2.9 4.5.4.3 1.5 1.8 2.7 3.5 10.8 15.7 14.1 20.6 18.8 27.4 3 4.3 7 10 8.8 12.6 1.8 2.6 3.8 5.4 4.3 6.3.6.9 1.4 2.1 1.8 2.6.7.9 9.3 13.4 15.7 22.6 16.3 23.8 21.1 30.7 21.9 31.7.6.7 1.1 1.6 1.1 2.2 0 .5.4 1.1.8 1.3.8.3 29.3 41.3 30.1 43.2.2.6 1.5 2.2 2.8 3.5 1.2 1.4 2.3 3 2.3 3.6 0 .6.9 1.8 2 2.8 1.1.9 2 2.3 2 3.1 0 .8.4 1.6.8 1.8.7.3 13.7 18.6 16.7 23.5.6.9 1.5 2.4 2.2 3.2.7.9 3.5 4.9 6.3 8.8 2.8 4 5.5 7.3 6.1 7.3.5 0 8.9-4.1 18.7-9.1 9.7-5 28.3-14.6 41.2-21.2 12.9-6.7 29.8-15.3 37.5-19.3 7.7-4 20.4-10.5 28.3-14.5 7.9-4 14.5-7.6 14.8-8.1.3-.4 1.4-.8 2.4-.8s2-.3 2.2-.8c.2-.4 5.3-3.2 11.3-6.2 6.1-3 12.6-6.4 14.5-7.6 1.9-1.2 4.6-2.5 6-2.9 1.4-.4 2.7-1 3-1.4.3-.3 6.4-3.5 13.5-7.1 7.2-3.6 13.2-6.7 13.5-7 .3-.3 7.9-4.2 17-8.8 9.1-4.6 18.4-9.4 20.8-10.7 2.3-1.4 4.2-2.1 4.2-1.7 0 .4.4.2.8-.3.4-.6 4-2.6 8-4.5 3.9-1.9 7.2-3.8 7.2-4.4 0-.5.3-.6.7-.3.3.4 2-.2 3.7-1.2 1.7-1 12.5-6.7 24-12.5s21.5-11.1 22.3-11.7c.7-.6 1.3-.8 1.3-.4s.6.3 1.3-.3c1.2-1 12-6.6 46.2-24.2 9.9-5 18.5-9.7 19.2-10.3.7-.7 1.5-3.7 1.7-6.7.3-3 .8-7.5 1.1-10 .3-2.5.8-6.8 1.1-9.5 1.5-15.1 2.6-24.4 4-35.5.3-2.5.7-6.1.9-8 .2-1.9.4-3.5.5-3.5 0 0 .3-2 .5-4.5.9-10.1 1.5-15.6 2-18 .2-1.4.7-5.4 1.1-9 .3-3.6.8-8.1 1.1-10 .4-3.6.6-4.9 1.8-16.5.4-3.9.9-7.8 1.1-8.7.1-.9.6-4.8.9-8.5.4-3.7.9-7.5 1-8.4.2-.9.6-5.2 1-9.5s.9-8.7 1.1-9.8c.2-1 .6-4.4.9-7.5.3-3.1.8-7 1-8.6.2-1.7.7-6.2 1.1-10 .6-6.5 1.1-10 1.4-10 0 0 .3-2.7.5-6 .3-3.3.7-7.6 1-9.6.3-2 .8-5.9 1.1-8.5.2-2.7.6-6.5.9-8.4.2-1.9.7-6.2 1-9.4.4-3.3.8-6.8 1-7.8.2-1.1.7-4.7 1-8.1.3-3.4.8-8 1.1-10.2.4-2.2.7-5.4.9-7 .1-1.7.6-5.9 1-9.5 1.2-9.9 1.4-11.7 2.1-22l.7-9.5-7.4-5.5c-4.1-3-7.9-5.9-8.5-6.5-.6-.5-2.2-1.7-3.4-2.5-1.2-.8-5.8-4.3-10.3-7.8-4.4-3.4-8.3-6.2-8.6-6.2-.3 0-2-1.2-3.6-2.8-1.7-1.5-3.8-3.2-4.7-3.7-1.8-1.1-21.7-16-24.8-18.6-1-.8-3.1-2.4-4.5-3.5-1.5-1-12.4-9.2-24.3-18.2-14.3-10.7-22.1-16.1-23.2-15.6-.8.3-4 1.5-7 2.6s-6.2 2.2-7 2.5c-.8.4-1.8.5-2.2.5-.5-.1-.8.3-.8.9 0 .5-.4.8-.8.5-.5-.3-2 .1-3.5.9-1.4.7-2.8 1.1-3.1.7-.3-.3-.6.1-.6.8 0 .7-.3 1.1-.6.7-.3-.3-2.9.3-5.8 1.5-2.8 1.1-5.7 2.1-6.3 2.1-.7 0-1.3.4-1.3.9 0 .4-.3.7-.7.6-.5 0-1.5.2-2.3.5-.8.3-3.5 1.3-6 2.1s-6.1 2.1-8.1 3c-2 .8-3.9 1.2-4.3.9-.3-.4-.6-.1-.6.5 0 .7-.3 1.1-.7 1-.7-.2-8.6 2.5-14.3 4.9-.8.3-1.9.7-2.5.9-.5.1-2.3.8-4 1.5-1.6.7-3.3 1.3-3.7 1.4-.5.2-.9.3-1 .5-.2.1-1 .3-1.9.5-.9.1-3.2 1-5 1.8-3.2 1.4-23.8 9-32.1 11.8-2.1.7-3.8 1.6-3.8 1.9 0 .6 2.9 3.3 11.6 10.7 2.7 2.3 6 5.1 7.4 6.3 1.4 1.2 4.4 3.8 6.8 5.8 2.3 1.9 4.2 3.8 4.2 4.2 0 .7-8.7.7-109-.5-61.9-.8-90.3-1.2-91-1.4-.3-.1 0-.5.5-.9.6-.4 5.7-6.1 11.5-12.7s10.7-12.2 11-12.5c.7-.7 12.2-14 15.1-17.4 1.3-1.6 3.5-4 4.9-5.5 1.4-1.4 5.2-5.7 8.5-9.6 3.3-3.8 7.1-8.2 8.5-9.6 1.4-1.4 3.6-4 5-5.6 2.6-3.2 13.3-15.3 18.5-21l3-3.3 3.6 3.3c2 1.7 6.6 5.9 10.4 9.2 3.7 3.3 7.8 7 9.2 8.2 2.2 2.2 2.6 2.2 5.9.8 1.9-.8 3.5-1.4 3.7-1.4.1 0 1.6-.5 3.2-1.1 1.7-.7 3.7-1.3 4.6-1.5.8-.2 5.6-1.7 10.5-3.5s9.4-3.3 9.9-3.4c.6-.2 1.9-.6 3-1 1.1-.5 3.1-1.2 4.5-1.6 1.4-.4 3.4-1.2 4.5-1.6 1.1-.4 2.2-.8 2.5-.8 2.6-.4 27.6-9.3 28.1-9.9.3-.5.8-.8 1-.7.6.3 6.1-1.1 9.1-2.2 1.5-.5 2.9-.8 3.1-.7.2.2 1.2-.2 2.1-1 1-.8 2.5-1.6 3.4-1.7 1-.1 4.4-1.2 7.7-2.4s6.7-2.3 7.5-2.5c.8-.2 5-1.6 9.3-3.1 9.2-3.2 10.3-1.4-10.7-16.9-8.2-6.1-15.4-11.5-16-12.1-.6-.5-3.8-3-7.1-5.4-3.3-2.4-6.6-5-7.3-5.7-.7-.7-1.7-1.3-2.1-1.3-.4 0-1.6-.8-2.7-1.8-1-.9-3.7-3-5.9-4.7-2.2-1.6-4.9-3.7-5.9-4.7-1.1-1-2.3-1.8-2.7-1.8-.4 0-1.4-.6-2.1-1.3C448.1 16.2 427.1 1 425.9 1c-.8.1-4.5 1.2-8.4 2.5z"/></svg>